<?xml version="1.0" encoding="utf-8"?>
<!-- Generator: Adobe Illustrator 23.0.5, SVG Export Plug-In . SVG Version: 6.00 Build 0)  -->
<svg version="1.1"
	 id="svg8" xmlns:cc="http://creativecommons.org/ns#" xmlns:dc="http://purl.org/dc/elements/1.1/" xmlns:inkscape="http://www.inkscape.org/namespaces/inkscape" xmlns:rdf="http://www.w3.org/1999/02/22-rdf-syntax-ns#" xmlns:sodipodi="http://sodipodi.sourceforge.net/DTD/sodipodi-0.dtd" xmlns:svg="http://www.w3.org/2000/svg"
	 xmlns="http://www.w3.org/2000/svg" xmlns:xlink="http://www.w3.org/1999/xlink" x="0px" y="0px" viewBox="0 0 403.6 420.6"
	 style="enable-background:new 0 0 403.6 420.6;" xml:space="preserve">
<style type="text/css">
	.st0{fill:#E2DFE9;}
	.st1{fill:#FF8A19;stroke:#861300;stroke-width:3.2899;stroke-miterlimit:6;}
	.st2{fill:#FD9917;}
	.st3{fill:#FF8A19;stroke:#861300;stroke-width:4.8245;stroke-linecap:round;stroke-miterlimit:5;}
	.st4{fill:#FF613C;stroke:#E15D04;stroke-width:1.5875;stroke-linecap:round;}
	.st5{fill:#FF613C;}
	.st6{fill:none;stroke:#E15D04;stroke-width:2.1167;stroke-linecap:round;}
	.st7{fill:none;stroke:#E15D04;stroke-width:1.5875;stroke-linecap:round;}
	.st8{fill:#1A1A1A;stroke:#000000;stroke-width:2.9375;stroke-linecap:round;stroke-miterlimit:6;}
	.st9{fill:none;stroke:#333333;stroke-width:3.175;}
	.st10{fill:#4D4D4D;}
	.st11{fill:#333333;}
	.st12{fill:#CCCCCC;}
	.st13{fill:#CCCCCC;stroke:#000000;stroke-width:0.2417;stroke-opacity:0;}
	.st14{fill:#FF8A19;stroke:#861300;stroke-width:1.5875;stroke-miterlimit:6;}
	.st15{fill:#EC6C1E;}
	.st16{fill:#1A1A1A;}
	.st17{filter:url(#filter1028);}
	.st18{fill:#ECECEC;}
	.st19{filter:url(#filter992);}
	.st20{fill:none;stroke:#FF9955;stroke-width:0.7937;stroke-linecap:round;}
	.st21{filter:url(#filter1012);}
	.st22{filter:url(#filter996);}
	.st23{fill:#370202;}
	.st24{fill:none;stroke:#C83737;stroke-width:2.3262;stroke-linecap:round;}
	.st25{fill:none;stroke:#000000;stroke-width:0.7937;stroke-linecap:round;}
</style>
<filter  height="1.2665075" id="filter996" inkscape:collect="always" style="color-interpolation-filters:sRGB" width="1.288" x="-0.14400002" y="-0.13325375">
	<feGaussianBlur  id="feGaussianBlur998" inkscape:collect="always" stdDeviation="0.35151785"></feGaussianBlur>
</filter>
<filter  height="1.2665075" id="filter992" inkscape:collect="always" style="color-interpolation-filters:sRGB" width="1.288" x="-0.14400002" y="-0.13325375">
	<feGaussianBlur  id="feGaussianBlur994" inkscape:collect="always" stdDeviation="0.35151785"></feGaussianBlur>
</filter>
<filter  height="1.0715591" id="filter1028" inkscape:collect="always" style="color-interpolation-filters:sRGB" width="1.0724463" x="-0.036223158" y="-0.035779573">
	<feGaussianBlur  id="feGaussianBlur1030" inkscape:collect="always" stdDeviation="0.079571697"></feGaussianBlur>
</filter>
<filter  height="1.0715591" id="filter1012" inkscape:collect="always" style="color-interpolation-filters:sRGB" width="1.0724463" x="-0.036223158" y="-0.035779573">
	<feGaussianBlur  id="feGaussianBlur1014" inkscape:collect="always" stdDeviation="0.079571697"></feGaussianBlur>
</filter>
<g id="layer1" transform="translate(0,-87)" inkscape:groupmode="layer" inkscape:label="Layer 1">
	<polygon id="ellipse882" class="st0" points="75,176.7 75,176.7 75,176.7 75,176.7 	"/>
	<g id="g1099" transform="translate(0.78926849,71.461159)" inkscape:export-xdpi="300" inkscape:export-ydpi="300">
		<g id="g940" transform="matrix(1.0955698,-0.12891413,0.12891413,1.0955698,-18.012596,51.587223)">
			
				<path id="path979" inkscape:connector-curvature="0" inkscape:export-xdpi="300" inkscape:export-ydpi="300" sodipodi:nodetypes="cssccsccscccscccssccscsc" class="st1" d="
				M101.5,65.7c-14.7-2,5.4,2.8-7.8,11.9s-33.2,12-46.1,33.4c-9.3,15.3-31.5,45-45.4,55.6c11.6-2.8,24-12.3,38.4-28.6
				c0.4,13.1-7.4,17.9-15.5,33c-8.1,15.1-20.2,33.4-17.8,42.5c8.9-13.9,34.9-46.5,36.1-50.9c-14.7,32.6-17.1,42.9-16.7,58
				s-0.4,53.6,0,56.8c3.5-12.3,7.8-48.9,14.3-54.4c6.6-5.6,107.4,22.3,124.1,25c16.7,2.8,149.7-17.9,152.8-19.5
				c3.1-1.6,9.7,39.7,9.7,39.7c1.9-15.9,1.2-72.7-1.9-81.1c7.8,18.3,11.2,70.7,22.5,92.2c-2.4-27-1-31.5,0.5-40.7
				c3.2-18.8,0.8-33.8-4.4-45.6c-6.7-15.1-12.4-32.6-12.4-32.6c12.8,6,14.7,9.1,26,45.7c9.7-36.2-19.8-73.5-36.4-85
				c-11.7-8.1-8.9-27.8-16.3-34.2c-7.4-6.4-62.4-43.7-68.2-25C231,80.8,101.5,65.7,101.5,65.7L101.5,65.7z"/>
			
				<path id="path981" inkscape:connector-curvature="0" inkscape:export-xdpi="300" inkscape:export-ydpi="300" sodipodi:nodetypes="cssccsccscccscccssccscsc" class="st2" d="
				M104.9,75.8c-14.1-1.8,5.2,2.5-7.4,10.8s-16.4,20.2-39,25.5c-9.8,2.3-12.6,12.3-27.2,25c11.1-2.5,16.6-1.4,27.9-7.1
				c-9.6,12.9-8.5,6.6-14.3,14.3c-4.4,5.9-8.3,11-6.1,19.3c14-14.6,19.9-16.5,22.7-18.9c-11.2,13.2-18.9,27.9-23,41
				c-2.2,7-4.3,20.1-2.3,26.8c5.8-19.3,15.9-31.8,22.2-36.8c6.3-5,91.5,62.6,107.4,65.1c16,2.5,143.2-16.2,146.2-17.6
				c3-1.4,9.3,36,9.3,36c1.9-14.4-3.6-74.2-6.8-84.6c14.3,1.7,18.5,33.1,29.6,60.4c-1.6-21.5-1.5-23.3-3.3-36.6
				c-2.4-17.1-8.7-22.2-13.7-32.9c-6.4-13.7-20-19.6-20-19.6c12.2,5.4,21.2,1.6,41.5,22.4c-9.8-34.7-21.8-38.1-37.8-48.5
				c-11.2-7.3-3.9-18.7-11-24.5c-7-5.8-59.7-39.6-65.3-22.7C228.8,89.5,104.9,75.8,104.9,75.8L104.9,75.8z"/>
			
				<path id="path861" inkscape:connector-curvature="0" inkscape:export-xdpi="300" inkscape:export-ydpi="300" sodipodi:nodetypes="ccsccccccccsccccscccscsscc" class="st3" d="
				M83,173.3c-17.1-0.6-32.1,31.4-33.1,51.8c-6.3,19-6.7,25.2-7,43.1c-0.5,26.1,7,55.3,24.7,70.9c1.7-22.9-2.2-48.1,10-70.4
				c-2.5,31.4,13.6,37.1,12.1,73.8c18.7-8.3,10.1-28.4,18-66.4c-1.7,47.7,10,54.5,5.7,76.9c17.2-10.3,21-30.4,21.1-54
				c1.7,25.5,4.8,33.6,29.7,53.3c-0.5-18.1-1.7-26.8,2.6-40.1c17,18.6,9.1,53.3,9.1,53.3c5.4-4.6,23.9-31.9,28.9-62.4
				c7.2,37.8,7.6,47.4,0.6,62.4c13.2-5.8,26.1-42.2,31.2-56.4c2.2,20.6,12.8,29,14.5,44.5c14.1-12.8,12.2-66.9,10.5-71
				c-3.3-8,15.7,40.5,10.2,58.7c19.3-18.7,18.2-60.3,18.2-76.8c7.9,14.9,12.4,34,9.8,64.6c6.9-7.6,25-29.1,22.7-55.1
				c-1.2-13.2-1.8-29.5-7.2-42.8c0.6-13.2-5.5-27.3-6.3-30.7c-3-11.9-8.9-27.8-24.7-27.1C269.3,174.1,83,173.3,83,173.3L83,173.3z"
				/>
			
				<path id="path857" inkscape:connector-curvature="0" inkscape:export-xdpi="300" inkscape:export-ydpi="300" sodipodi:nodetypes="csccccccccsccccscccsssc" class="st2" d="
				M85.7,170.1C63,175.6,54,201.6,53.5,222c-0.5,20.4-6.1,60.7,6.9,86.3c4.1-21.5,10.8-35.7,20-53.9c2.9,24.2,14,45.9,21.6,56.9
				c-1.5-23.9,2.4-35.4,3.5-54.4c13.6,22.7,15.1,50.8,12,61.2c12.9-4.3,18.8-17.2,20.5-49c3.2,5.8,4.4,49.5,21,62.8
				c-0.5-18.1,1.6-29.5,5.9-42.8c16.5,18.6,18,42.9,16.7,46.1c-2.7,6.4,17-30.4,21.8-60.9c12.9,38,15.7,27.5,10.1,65
				c11.1-10.2,21.2-48.1,26.3-54c1,12.6,6.3,20.2,8,35.7c13.7-12.8,10.1-48.2,8.4-52.4c-3.2-8,19.5,10.8,18.1,38.3
				c13.6-32,13-55,13-71.5c11.1,21.8,13.5,33.4,20.4,60.2c13.2-13.4,6.5-28.1,3.4-45.8c-3.9-22.6-1.7-44.4-4.6-49.5
				c-4.2-7.4-8.5-30.3-20.3-30.4C271.5,169.7,85.7,170.1,85.7,170.1L85.7,170.1z"/>
			
				<path id="path983" inkscape:connector-curvature="0" inkscape:export-xdpi="300" inkscape:export-ydpi="300" sodipodi:nodetypes="ccsccccccccc" class="st2" d="
				M43.6,201.8c8.1-11.2,12.3-18.5,18.2-21.9c-7.7,25.8-1,23.3-2.5,36.7c-1,9.8,116.5,22.9,116.5,22.9s132.3-10,132.5-16.1
				c0.2-6.1,5-19.3-5.4-47.5c11.2,18.6,15.3,25.9,15.5,26.7c-6.3-34.1-25.4-52.8-25.4-52.8l-43.9,4l-127.7,4.5l-51.9-3.2
				C69.6,155.2,42.7,196,43.6,201.8L43.6,201.8z"/>
			<path id="path855" inkscape:connector-curvature="0" inkscape:export-xdpi="300" inkscape:export-ydpi="300" class="st4" d="
				M279.9,169.4c-3.7,0-6.8,2.9-6.8,6.7c-0.1,2.8-2.2,7.7-6.8,12.9c-4.7,5.3-11.6,10.8-19.9,15.8c-16.5,9.9-38.4,17.3-58,17.2
				c-19.9-0.1-42.5-6.7-60.3-16s-30.1-21.9-31.7-29.7c-0.7-3.7-4.3-6-7.9-5.3c-3.7,0.7-6,4.3-5.3,7.9c0,0,0,0.1,0,0.1
				c3.3,15.9,19,28.7,38.7,39c19.6,10.2,43.8,17.3,66.5,17.5c23,0.1,46.6-8,65-19.1c9.2-5.5,17.1-11.8,23-18.4
				c5.9-6.6,10-13.7,10.2-21.5c0.1-3.7-2.8-6.9-6.5-7C280,169.4,280,169.4,279.9,169.4L279.9,169.4z"/>
			
				<path id="path907" inkscape:connector-curvature="0" inkscape:export-xdpi="300" inkscape:export-ydpi="300" sodipodi:nodetypes="sssssss" class="st5" d="
				M283.5,125c1.1,10.3,6.4,39.3,2.8,46.2c-14.7,27.9-51.4,27.7-100.8,27.7c-48,0-87.8-2.2-103.5-28.8c-4.5-7.6,0.6-41.5,0.6-50
				c0-38.6,41.3-53.2,103-53.2S279.5,86.6,283.5,125L283.5,125z"/>
			
				<path id="path849" inkscape:connector-curvature="0" inkscape:export-xdpi="300" inkscape:export-ydpi="300" sodipodi:nodetypes="csc" class="st6" d="
				M268.4,125.4c-0.3,16.3-12.1,28.7-37.1,30.4c-28.9,1.9-37.6-22.4-34.9-30.8"/>
			
				<path id="path847" inkscape:connector-curvature="0" inkscape:export-xdpi="300" inkscape:export-ydpi="300" sodipodi:nodetypes="csc" class="st6" d="
				M97,125.5c0.1,14.1,12.2,30.8,37.2,30.2c24.6-0.5,33.4-15,34.1-30.6"/>
			
				<path id="path987" inkscape:connector-curvature="0" inkscape:export-xdpi="300" inkscape:export-ydpi="300" sodipodi:nodetypes="cc" class="st7" d="
				M286.8,176.4c2.3-21.7-0.9-40-8.4-60.5"/>
			<g id="g999" transform="translate(60.937452,-96.735452)" inkscape:export-xdpi="300" inkscape:export-ydpi="300">
				<path id="rect874" inkscape:connector-curvature="0" sodipodi:nodetypes="sssssss" class="st8" d="M106.3,88.4
					c9.9-0.7,19.8-0.4,29.7,0c13.1,0.5,63.3,17.8,65.4,39.8c3,31.9,8.6,36.7-27.8,39.8c-32,2.7-65.1,3.9-105,0
					c-36.8-3.6-30-14-27.8-39.8C42.9,106.3,90.5,89.5,106.3,88.4L106.3,88.4z"/>
				<path id="path989" inkscape:connector-curvature="0" sodipodi:nodetypes="cc" class="st9" d="M39.5,155.8
					c56.3,7.8,110.8,6.8,163.6-2.7"/>
				<path id="path993" inkscape:connector-curvature="0" sodipodi:nodetypes="ccsccccccscc" class="st10" d="M160.1,94.6
					c-0.8,0-1.5,0.3-2.1,0.8c-15,13.9-21.6,23.7-22.2,32c-0.3,4.1,1.4,7.8,4.1,10.3c2.7,2.5,6.3,4,10.4,5.1
					c16.3,4.1,42.1,1.1,51.6-1.4c0.8,0.7,0.4-7.6-0.8-7.2c-8.4,2.1-35.4,6.1-49.3,2.7c-3.5-0.9-6.2-2.1-7.8-3.6
					c-1.6-1.5-3.2-5.9-2.6-8.9c1.7-7.7,8.5-12.1,24.9-25.5C168.4,97.2,162.6,95.8,160.1,94.6L160.1,94.6z"/>
				<path id="path991" inkscape:connector-curvature="0" sodipodi:nodetypes="cccccccscccc" class="st11" d="M79.3,96
					c-0.7,0.4,2.2,2.8,4.1,4.6c12.9,12.7,13.2,20.3,13.2,25.4c0,2.5-0.8,4.2-2.4,5.8c-1.6,1.6-4.3,2.9-7.6,3.9
					c-13.2,3.9-36.6,1.3-44.9-0.8c-3.4-1-2.1,5.4-1.5,5.8c9.5,2.4,32.5,5.4,48.1,0.7c3.9-1.2,7.4-2.8,10-5.3
					c2.6-2.5,4.3-6.1,4.2-10.2c-0.1-8.1-5.9-17.7-19.3-30.9C82.8,94.4,80.1,95.9,79.3,96z"/>
				<path id="path898" inkscape:connector-curvature="0" class="st12" d="M148.6,122.3c-0.8,3.3-0.7,8.2,4.1,10
					c4.7,1.8,9.8,2.6,11.7,2.7s3-0.9-0.9-3.4c-4-2.6-12.4-7.4-10.3-11.6C155.2,115.7,150.4,115.7,148.6,122.3z"/>
				<path id="path900" inkscape:connector-curvature="0" sodipodi:nodetypes="cacacc" class="st13" d="M93.7,99.8
					c3.1,2.7,9.6,13.3,11.7,21.4c1,4.1,0.1,12.6,0.1,12.6s3.3-5.1,3.4-8.2c0.3-7.2-2.6-15.3-6.3-20.5C98.6,99.9,86.5,88.1,93.7,99.8
					L93.7,99.8z"/>
			</g>
			
				<path id="path872" inkscape:connector-curvature="0" inkscape:export-xdpi="300" inkscape:export-ydpi="300" sodipodi:nodetypes="ccccccccccccccccsccc" class="st14" d="
				M197.2,110.9c-1.8-10.1-2.5-10.9-12.8-9.6c7.2-5.7,11.2-10.3,16.6-9.4c-5.3-8.9-1.7-8.3-16.5-8.3c11.2-7.3,27.5-9.6,29.4-4.4
				c2.1-5.8-10.8-11.1-23.2-18.8c24.2-3.3,32.6,6.8,34.5,14c3.5-17.9,5.3-21.1,19.1-28.4c-9.4,18.2,12.2,17.3,0.8,31.2
				c12.4-6.7,19.1-19.7,30.4-21.2c-10.7,17-4,14.6-10.5,26.4c4.9-2.9,13.9-16.7,29.1-18.3c-12.2,17.7-2.5,12.3,15.2,14.2
				c-9.3,3.7-14.2,7.8-20.1,16.8c17.3-6.7,22,5.7,26.6,8.6c-30.3-3.9-16.8,12.7-9.6,24.4c-8.6-6.1-17.1-12.4-19.9-11.6
				c-2.3,0.7,0.5,7.4,1,12.6c-26.1-32-80.3-17.7-80.3-17.7L197.2,110.9z"/>
			
				<path id="path1040" inkscape:connector-curvature="0" inkscape:export-xdpi="300" inkscape:export-ydpi="300" sodipodi:nodetypes="ccccccccccccccccsccc" class="st2" d="
				M204.9,107.5c-1.5-8.7-4.6-6.5-12-8.4c6.2-4.9,8.5-5.1,13.1-4.3c-4.5-7.6-0.7-8.7-12.2-13.4c13.8-1.7,20-1,23,3.4
				c3.6-7.2-3-13-13.6-19.6c19.1,3.1,20.7,10.3,22.3,16.5c3-15.4,1.8-16.7,13.7-22.9c0.5,11.3,5.1,14.5,1.6,23
				c10.7-5.8,17.6-12,27.7-16.6c-9.2,14.7-1.8,13.3-7.4,23.4c6.9-1.6,13.2-16.3,26.2-17.6c-10.5,15.2-2.8,7.2,12.4,8.8
				c-8,3.2-12,9.4-17.1,17.2c10.5,0.5,15.6,2.7,19.5,5.3c-26.1-3.4-10.8,5.5-4.6,15.6c-7.4-5.2-13.7-6.1-16-5.4
				c-2,0.6,1.2,4.9,1.6,9.3c-23.3-18.4-69.9-13.7-69.9-13.7L204.9,107.5z"/>
			<g id="g895" transform="translate(60.937452,-95.147952)" inkscape:export-xdpi="300" inkscape:export-ydpi="300">
				<path id="path880" inkscape:connector-curvature="0" sodipodi:nodetypes="zszsz" class="st0" d="M209.1,217.7
					c0,12-17,33.1-37.9,33.1s-37.9-18.2-37.9-33.1s17-33.1,37.9-33.1S209.1,205.8,209.1,217.7z"/>
			</g>
			
				<path id="path985" inkscape:connector-curvature="0" inkscape:export-xdpi="300" inkscape:export-ydpi="300" sodipodi:nodetypes="cc" class="st7" d="
				M83.2,175.7c-2.3-21.7-2-51.2,8.3-59.9"/>
			
				<path id="path870" inkscape:connector-curvature="0" inkscape:export-xdpi="300" inkscape:export-ydpi="300" sodipodi:nodetypes="cccccccccccccccccc" class="st14" d="
				M167.5,110.9c5-9.8,3.3-12.6,14.9-14.5c-1.7-7.1-0.9-12-17-7.7c7.7-7.5,6.4-9.8,21.6-13.2c-11.2-7.3-32.4-1.7-34.4,3.5
				c-2.1-5.8-3.1-7.9,0.4-19.2c-6.5,3.1-12,9.1-13.9,16.4c-0.8-20.1-8.8-16.2-2.9-26.2c-15.2,4.3-22.8,14-15.3,28.2
				c-10.7-5.8-20.5-20.7-31.8-22.2c14.3,14.2,1.7,12,8.2,23.8c-4.9-2.9-11.7-14.1-26.8-15.6C84.1,77,73.1,76.5,55.3,78.4
				c24.1,9.7,1,20.6-6.5,25.5c30.3-3.9,17.8,8.2,10.6,19.9c15.7-11.2,19-5.7,17.9,5.5c26.1-32,80.3-17.7,80.3-17.7L167.5,110.9z"/>
			
				<path id="path892" inkscape:connector-curvature="0" inkscape:export-xdpi="300" inkscape:export-ydpi="300" sodipodi:nodetypes="cccccccccccccccccc" class="st2" d="
				M161.6,108.7c4.4-8.7,2.9-11.1,13.2-12.8c-1.5-6.3-0.8-10.6-15.1-6.9c6.8-6.7,5.7-8.7,19.2-11.7c-9.9-6.5-28.8-1.5-30.5,3.1
				c-1.9-5.2-2.7-7,0.4-17c-5.8,2.8-10.7,8.1-12.3,14.5c-3-7.6-6-10.1-7.3-19c-8.6,9.7-8.6,15.7-5.8,24.8
				c-9.5-5.1-14.8-14.6-25.6-18.1c7.6,16,2.3,10.5,4.1,21c-8.5-1-12.5-15.8-25.9-17.2c7.4,9.1,1.9,8.8-13.8,10.4
				c21.4,8.6,4.3,16.8-2.3,21.1c26.9-3.5,17.4,1.9,11,12.3c13.9-9.9,10.9-3.2,10,6.8c23.1-28.4,72-10.7,72-10.7L161.6,108.7z"/>
			
				<path id="path897" inkscape:connector-curvature="0" inkscape:export-xdpi="300" inkscape:export-ydpi="300" sodipodi:nodetypes="zszsz" class="st0" d="
				M171.1,122.2c0,12-17,33.1-37.9,33.1s-37.9-18.2-37.9-33.1c0-14.9,17-33.1,37.9-33.1C154.2,89.1,171.1,110.2,171.1,122.2
				L171.1,122.2z"/>
			
				<g id="g977" transform="matrix(0.95569995,0,0,0.95569995,61.755879,-88.360841)" inkscape:export-xdpi="300" inkscape:export-ydpi="300">
				<circle id="circle899" class="st15" cx="73.9" cy="220.3" r="20.3"/>
				
					<ellipse id="circle901" transform="matrix(0.9931 -0.1169 0.1169 0.9931 -25.2418 10.1468)" class="st16" cx="73.9" cy="220.3" rx="12.7" ry="12.7"/>
				<g id="ellipse903" inkscape:transform-center-x="1.5119048" inkscape:transform-center-y="0.37797619" class="st17">
					
						<ellipse transform="matrix(0.592 -0.806 0.806 0.592 -139.0093 154.0215)" class="st18" cx="82.6" cy="214.3" rx="8.6" ry="7.2"/>
				</g>
				<g id="path964" inkscape:connector-curvature="0" class="st19">
					<path class="st20" d="M58.2,218.6c0.5,8.3,4.8,17.9,16.6,17.9"/>
				</g>
			</g>
			
				<g id="g971" transform="matrix(0.95569995,0,0,0.95569995,63.872546,-88.360841)" inkscape:export-xdpi="300" inkscape:export-ydpi="300">
				
					<ellipse id="circle884" transform="matrix(4.373137e-02 -0.999 0.999 4.373137e-02 -51.3323 387.7878)" class="st15" cx="176.9" cy="220.7" rx="21.4" ry="21.4"/>
				
					<ellipse id="circle886" transform="matrix(0.9768 -0.2142 0.2142 0.9768 -43.1618 43.0049)" class="st16" cx="176.9" cy="220.7" rx="12.7" ry="12.7"/>
				<g id="circle888" inkscape:transform-center-x="1.5119048" inkscape:transform-center-y="0.37797619" class="st21">
					
						<ellipse transform="matrix(0.592 -0.806 0.806 0.592 -97.292 237.1828)" class="st18" cx="185.6" cy="214.7" rx="8.6" ry="7.2"/>
				</g>
				<g id="path966" inkscape:connector-curvature="0" class="st22">
					<path class="st20" d="M160.6,218.6c0.5,8.3,4.8,17.9,16.6,17.9"/>
				</g>
			</g>
			
				<path id="ellipse1032" inkscape:connector-curvature="0" inkscape:export-xdpi="300" inkscape:export-ydpi="300" sodipodi:nodetypes="sscssssssssssssssssssssssssssssssscs" class="st23" d="
				M280.6,172.8c0,11.6-40.3,51.4-92.4,51.4c-52.1,0-101.2-39.9-101.2-51.5c0-0.7,0.2-1.3,0.5-1.9c0.3-0.5,0.8-0.9,1.5-1.3
				c0.6-0.3,4.2,1.4,5.2,1.3c0.9-0.2,2-0.3,3.2-0.3c1.2,0,2.6,0,4,0.1c1.5,0.1,3.1,1.3,4.8,1.5c1.7,0.2,3.6-0.6,5.5-0.4
				c2,0.3,3.7,2.6,5.9,2.9c2.2,0.3,4.7-1.4,7.1-1c2.4,0.4,4.3,3,6.9,3.4c2.5,0.4,5.7-1.6,8.4-1.2c2.7,0.4,5.5,2.8,8.3,3.1
				c2.8,0.3,5.8-1.4,8.7-1.1c3,0.3,6.6,2.9,9.7,3.1c3.1,0.2,5.6-2,8.8-1.9c3.2,0.1,6.9,1.4,10.2,1.4c3.3,0,5.9-1.3,9.1-1.4
				c3.2-0.1,6.8,0.9,9.9,0.7c3.1-0.2,5.5-1.7,8.4-1.9c2.9-0.3,6.3,0.6,9.1,0.3c2.8-0.3,5-1.9,7.6-2.2c2.6-0.4,5.7,0.5,8.2,0.1
				c2.5-0.4,4.3-1.9,6.6-2.3c2.3-0.4,5,0.5,7.1,0.2c2.1-0.3,3.6-1.8,5.5-2.1c1.9-0.3,4.2,0.7,5.9,0.5c1.7-0.2,2.7-1.5,4.1-1.6
				c1.4-0.1,2.7-0.1,3.9-0.1c1.2,0,2.2,0.1,3.1,0.3c0.9,0.2,3.9-1.5,4.5-1.2c0.6,0.3,1.1,0.8,1.4,1.3
				C280.4,171.4,280.6,172,280.6,172.8L280.6,172.8z"/>
			
				<path id="path1035" inkscape:connector-curvature="0" inkscape:export-xdpi="300" inkscape:export-ydpi="300" sodipodi:nodetypes="cc" class="st24" d="
				M158.3,211.7c8.8,6.9,39.7,8.2,55.6,0"/>
			<path id="path1037" inkscape:connector-curvature="0" inkscape:export-xdpi="300" inkscape:export-ydpi="300" class="st25" d="
				M95,123.1c1.3-17.7,18.2-32.7,37.2-34.3c19-1.6,38.8,20.9,38.9,33.4"/>
			<path id="path1039" inkscape:connector-curvature="0" inkscape:export-xdpi="300" inkscape:export-ydpi="300" class="st25" d="
				M193.9,123.5c1.3-17.7,18.2-32.7,37.2-34.3c19-1.6,38.8,20.9,38.9,33.4"/>
		</g>
	</g>
</g>
</svg>
