<svg xmlns="http://www.w3.org/2000/svg" xml:space="preserve" id="svg8" x="0" y="0" style="enable-background:new 0 0 403.6 420.6" version="1.1" viewBox="0 0 403.6 420.6"><style>.st0{fill:#e2dfe9}.st2{fill:#fd9917}.st6{fill:none;stroke:#e15d04;stroke-width:2.1167;stroke-linecap:round}.st14,.st7{stroke-width:1.5875}.st7{fill:none;stroke:#e15d04;stroke-linecap:round}.st14{fill:#ff8a19;stroke:#861300;stroke-miterlimit:6}.st15{fill:#ec6c1e}.st16{fill:#1a1a1a}.st18{fill:#ececec}.st20,.st25{fill:none;stroke:#f95;stroke-width:.7937;stroke-linecap:round}.st25{stroke:#000}</style><filter id="filter996" width="1.288" height="1.267" x="-.144" y="-.133" style="color-interpolation-filters:sRGB"><feGaussianBlur id="feGaussianBlur998" stdDeviation=".352"/></filter><filter id="filter992" width="1.288" height="1.267" x="-.144" y="-.133" style="color-interpolation-filters:sRGB"><feGaussianBlur id="feGaussianBlur994" stdDeviation=".352"/></filter><filter id="filter1028" width="1.072" height="1.072" x="-.036" y="-.036" style="color-interpolation-filters:sRGB"><feGaussianBlur id="feGaussianBlur1030" stdDeviation=".08"/></filter><filter id="filter1012" width="1.072" height="1.072" x="-.036" y="-.036" style="color-interpolation-filters:sRGB"><feGaussianBlur id="feGaussianBlur1014" stdDeviation=".08"/></filter><g id="layer1" transform="translate(0 -87)"><path id="ellipse882" d="M75 176.7" class="st0"/><g id="g1099" transform="translate(.79 71.461)"><g id="g940" transform="rotate(-6.712 430.915 179.407)scale(1.10313)"><path id="path979" d="M101.5 65.7c-14.7-2 5.4 2.8-7.8 11.9s-33.2 12-46.1 33.4c-9.3 15.3-31.5 45-45.4 55.6 11.6-2.8 24-12.3 38.4-28.6.4 13.1-7.4 17.9-15.5 33S4.9 204.4 7.3 213.5c8.9-13.9 34.9-46.5 36.1-50.9-14.7 32.6-17.1 42.9-16.7 58s-.4 53.6 0 56.8c3.5-12.3 7.8-48.9 14.3-54.4 6.6-5.6 107.4 22.3 124.1 25 16.7 2.8 149.7-17.9 152.8-19.5s9.7 39.7 9.7 39.7c1.9-15.9 1.2-72.7-1.9-81.1 7.8 18.3 11.2 70.7 22.5 92.2-2.4-27-1-31.5.5-40.7 3.2-18.8.8-33.8-4.4-45.6-6.7-15.1-12.4-32.6-12.4-32.6 12.8 6 14.7 9.1 26 45.7 9.7-36.2-19.8-73.5-36.4-85-11.7-8.1-8.9-27.8-16.3-34.2s-62.4-43.7-68.2-25c-6 18.9-135.5 3.8-135.5 3.8z" style="fill:#ff8a19;stroke:#861300;stroke-width:3.2899;stroke-miterlimit:6"/><path id="path981" d="M104.9 75.8c-14.1-1.8 5.2 2.5-7.4 10.8s-16.4 20.2-39 25.5c-9.8 2.3-12.6 12.3-27.2 25 11.1-2.5 16.6-1.4 27.9-7.1-9.6 12.9-8.5 6.6-14.3 14.3-4.4 5.9-8.3 11-6.1 19.3 14-14.6 19.9-16.5 22.7-18.9-11.2 13.2-18.9 27.9-23 41-2.2 7-4.3 20.1-2.3 26.8 5.8-19.3 15.9-31.8 22.2-36.8s91.5 62.6 107.4 65.1c16 2.5 143.2-16.2 146.2-17.6s9.3 36 9.3 36c1.9-14.4-3.6-74.2-6.8-84.6 14.3 1.7 18.5 33.1 29.6 60.4-1.6-21.5-1.5-23.3-3.3-36.6-2.4-17.1-8.7-22.2-13.7-32.9-6.4-13.7-20-19.6-20-19.6 12.2 5.4 21.2 1.6 41.5 22.4-9.8-34.7-21.8-38.1-37.8-48.5-11.2-7.3-3.9-18.7-11-24.5-7-5.8-59.7-39.6-65.3-22.7-5.7 16.9-129.6 3.2-129.6 3.2" class="st2"/><path id="path861" d="M83 173.3c-17.1-.6-32.1 31.4-33.1 51.8-6.3 19-6.7 25.2-7 43.1-.5 26.1 7 55.3 24.7 70.9 1.7-22.9-2.2-48.1 10-70.4-2.5 31.4 13.6 37.1 12.1 73.8 18.7-8.3 10.1-28.4 18-66.4-1.7 47.7 10 54.5 5.7 76.9 17.2-10.3 21-30.4 21.1-54 1.7 25.5 4.8 33.6 29.7 53.3-.5-18.1-1.7-26.8 2.6-40.1 17 18.6 9.1 53.3 9.1 53.3 5.4-4.6 23.9-31.9 28.9-62.4 7.2 37.8 7.6 47.4.6 62.4 13.2-5.8 26.1-42.2 31.2-56.4 2.2 20.6 12.8 29 14.5 44.5 14.1-12.8 12.2-66.9 10.5-71-3.3-8 15.7 40.5 10.2 58.7 19.3-18.7 18.2-60.3 18.2-76.8 7.9 14.9 12.4 34 9.8 64.6 6.9-7.6 25-29.1 22.7-55.1-1.2-13.2-1.8-29.5-7.2-42.8.6-13.2-5.5-27.3-6.3-30.7-3-11.9-8.9-27.8-24.7-27.1-15 .7-201.3-.1-201.3-.1z" style="fill:#ff8a19;stroke:#861300;stroke-width:4.8245;stroke-linecap:round;stroke-miterlimit:5"/><path id="path857" d="M85.7 170.1C63 175.6 54 201.6 53.5 222s-6.1 60.7 6.9 86.3c4.1-21.5 10.8-35.7 20-53.9 2.9 24.2 14 45.9 21.6 56.9-1.5-23.9 2.4-35.4 3.5-54.4 13.6 22.7 15.1 50.8 12 61.2 12.9-4.3 18.8-17.2 20.5-49 3.2 5.8 4.4 49.5 21 62.8-.5-18.1 1.6-29.5 5.9-42.8 16.5 18.6 18 42.9 16.7 46.1-2.7 6.4 17-30.4 21.8-60.9 12.9 38 15.7 27.5 10.1 65 11.1-10.2 21.2-48.1 26.3-54 1 12.6 6.3 20.2 8 35.7 13.7-12.8 10.1-48.2 8.4-52.4-3.2-8 19.5 10.8 18.1 38.3 13.6-32 13-55 13-71.5 11.1 21.8 13.5 33.4 20.4 60.2 13.2-13.4 6.5-28.1 3.4-45.8-3.9-22.6-1.7-44.4-4.6-49.5-4.2-7.4-8.5-30.3-20.3-30.4-14.7-.2-200.5.2-200.5.2" class="st2"/><path id="path983" d="M43.6 201.8c8.1-11.2 12.3-18.5 18.2-21.9-7.7 25.8-1 23.3-2.5 36.7-1 9.8 116.5 22.9 116.5 22.9s132.3-10 132.5-16.1 5-19.3-5.4-47.5c11.2 18.6 15.3 25.9 15.5 26.7-6.3-34.1-25.4-52.8-25.4-52.8l-43.9 4-127.7 4.5-51.9-3.2c.1.1-26.8 40.9-25.9 46.7" class="st2"/><path id="path855" d="M279.9 169.4c-3.7 0-6.8 2.9-6.8 6.7-.1 2.8-2.2 7.7-6.8 12.9-4.7 5.3-11.6 10.8-19.9 15.8-16.5 9.9-38.4 17.3-58 17.2-19.9-.1-42.5-6.7-60.3-16S98 184.1 96.4 176.3c-.7-3.7-4.3-6-7.9-5.3-3.7.7-6 4.3-5.3 7.9v.1c3.3 15.9 19 28.7 38.7 39 19.6 10.2 43.8 17.3 66.5 17.5 23 .1 46.6-8 65-19.1 9.2-5.5 17.1-11.8 23-18.4s10-13.7 10.2-21.5c.1-3.7-2.8-6.9-6.5-7-.1-.1-.1-.1-.2-.1z" style="fill:#ff613c;stroke:#e15d04;stroke-width:1.5875;stroke-linecap:round"/><path id="path907" d="M283.5 125c1.1 10.3 6.4 39.3 2.8 46.2-14.7 27.9-51.4 27.7-100.8 27.7-48 0-87.8-2.2-103.5-28.8-4.5-7.6.6-41.5.6-50 0-38.6 41.3-53.2 103-53.2s93.9 19.7 97.9 58.1" style="fill:#ff613c"/><path id="path849" d="M268.4 125.4c-.3 16.3-12.1 28.7-37.1 30.4-28.9 1.9-37.6-22.4-34.9-30.8" class="st6"/><path id="path847" d="M97 125.5c.1 14.1 12.2 30.8 37.2 30.2 24.6-.5 33.4-15 34.1-30.6" class="st6"/><path id="path987" d="M286.8 176.4c2.3-21.7-.9-40-8.4-60.5" class="st7"/><g id="g999" transform="translate(60.937 -96.735)"><path id="rect874" d="M106.3 88.4c9.9-.7 19.8-.4 29.7 0 13.1.5 63.3 17.8 65.4 39.8 3 31.9 8.6 36.7-27.8 39.8-32 2.7-65.1 3.9-105 0-36.8-3.6-30-14-27.8-39.8 2.1-21.9 49.7-38.7 65.5-39.8z" style="fill:#1a1a1a;stroke:#000;stroke-width:2.9375;stroke-linecap:round;stroke-miterlimit:6"/><path id="path989" d="M39.5 155.8c56.3 7.8 110.8 6.8 163.6-2.7" style="fill:none;stroke:#333;stroke-width:3.175"/><path id="path993" d="M160.1 94.6c-.8 0-1.5.3-2.1.8-15 13.9-21.6 23.7-22.2 32-.3 4.1 1.4 7.8 4.1 10.3s6.3 4 10.4 5.1c16.3 4.1 42.1 1.1 51.6-1.4.8.7.4-7.6-.8-7.2-8.4 2.1-35.4 6.1-49.3 2.7-3.5-.9-6.2-2.1-7.8-3.6s-3.2-5.9-2.6-8.9c1.7-7.7 8.5-12.1 24.9-25.5 2.1-1.7-3.7-3.1-6.2-4.3" style="fill:#4d4d4d"/><path id="path991" d="M79.3 96c-.7.4 2.2 2.8 4.1 4.6 12.9 12.7 13.2 20.3 13.2 25.4 0 2.5-.8 4.2-2.4 5.8s-4.3 2.9-7.6 3.9c-13.2 3.9-36.6 1.3-44.9-.8-3.4-1-2.1 5.4-1.5 5.8 9.5 2.4 32.5 5.4 48.1.7 3.9-1.2 7.4-2.8 10-5.3s4.3-6.1 4.2-10.2c-.1-8.1-5.9-17.7-19.3-30.9-.4-.6-3.1.9-3.9 1" style="fill:#333"/><path id="path898" d="M148.6 122.3c-.8 3.3-.7 8.2 4.1 10 4.7 1.8 9.8 2.6 11.7 2.7s3-.9-.9-3.4c-4-2.6-12.4-7.4-10.3-11.6 2-4.3-2.8-4.3-4.6 2.3" style="fill:#ccc"/><path id="path900" d="M93.7 99.8c3.1 2.7 9.6 13.3 11.7 21.4 1 4.1.1 12.6.1 12.6s3.3-5.1 3.4-8.2c.3-7.2-2.6-15.3-6.3-20.5-4-5.2-16.1-17-8.9-5.3z" style="fill:#ccc;stroke:#000;stroke-width:.2417;stroke-opacity:0"/></g><path id="path872" d="M197.2 110.9c-1.8-10.1-2.5-10.9-12.8-9.6 7.2-5.7 11.2-10.3 16.6-9.4-5.3-8.9-1.7-8.3-16.5-8.3 11.2-7.3 27.5-9.6 29.4-4.4 2.1-5.8-10.8-11.1-23.2-18.8 24.2-3.3 32.6 6.8 34.5 14 3.5-17.9 5.3-21.1 19.1-28.4-9.4 18.2 12.2 17.3.8 31.2 12.4-6.7 19.1-19.7 30.4-21.2-10.7 17-4 14.6-10.5 26.4 4.9-2.9 13.9-16.7 29.1-18.3-12.2 17.7-2.5 12.3 15.2 14.2-9.3 3.7-14.2 7.8-20.1 16.8 17.3-6.7 22 5.7 26.6 8.6-30.3-3.9-16.8 12.7-9.6 24.4-8.6-6.1-17.1-12.4-19.9-11.6-2.3.7.5 7.4 1 12.6-26.1-32-80.3-17.7-80.3-17.7z" class="st14"/><path id="path1040" d="M204.9 107.5c-1.5-8.7-4.6-6.5-12-8.4 6.2-4.9 8.5-5.1 13.1-4.3-4.5-7.6-.7-8.7-12.2-13.4 13.8-1.7 20-1 23 3.4 3.6-7.2-3-13-13.6-19.6 19.1 3.1 20.7 10.3 22.3 16.5 3-15.4 1.8-16.7 13.7-22.9.5 11.3 5.1 14.5 1.6 23 10.7-5.8 17.6-12 27.7-16.6-9.2 14.7-1.8 13.3-7.4 23.4C268 87 274.3 72.3 287.3 71c-10.5 15.2-2.8 7.2 12.4 8.8-8 3.2-12 9.4-17.1 17.2 10.5.5 15.6 2.7 19.5 5.3-26.1-3.4-10.8 5.5-4.6 15.6-7.4-5.2-13.7-6.1-16-5.4-2 .6 1.2 4.9 1.6 9.3-23.3-18.4-69.9-13.7-69.9-13.7z" class="st2"/><g id="g895" transform="translate(60.937 -95.148)"><path id="path880" d="M209.1 217.7c0 12-17 33.1-37.9 33.1s-37.9-18.2-37.9-33.1 17-33.1 37.9-33.1 37.9 21.2 37.9 33.1" class="st0"/></g><path id="path985" d="M83.2 175.7c-2.3-21.7-2-51.2 8.3-59.9" class="st7"/><path id="path870" d="M167.5 110.9c5-9.8 3.3-12.6 14.9-14.5-1.7-7.1-.9-12-17-7.7 7.7-7.5 6.4-9.8 21.6-13.2-11.2-7.3-32.4-1.7-34.4 3.5-2.1-5.8-3.1-7.9.4-19.2-6.5 3.1-12 9.1-13.9 16.4-.8-20.1-8.8-16.2-2.9-26.2-15.2 4.3-22.8 14-15.3 28.2-10.7-5.8-20.5-20.7-31.8-22.2 14.3 14.2 1.7 12 8.2 23.8-4.9-2.9-11.7-14.1-26.8-15.6C84.1 77 73.1 76.5 55.3 78.4c24.1 9.7 1 20.6-6.5 25.5 30.3-3.9 17.8 8.2 10.6 19.9 15.7-11.2 19-5.7 17.9 5.5 26.1-32 80.3-17.7 80.3-17.7z" class="st14"/><path id="path892" d="M161.6 108.7c4.4-8.7 2.9-11.1 13.2-12.8-1.5-6.3-.8-10.6-15.1-6.9 6.8-6.7 5.7-8.7 19.2-11.7-9.9-6.5-28.8-1.5-30.5 3.1-1.9-5.2-2.7-7 .4-17-5.8 2.8-10.7 8.1-12.3 14.5-3-7.6-6-10.1-7.3-19-8.6 9.7-8.6 15.7-5.8 24.8-9.5-5.1-14.8-14.6-25.6-18.1 7.6 16 2.3 10.5 4.1 21-8.5-1-12.5-15.8-25.9-17.2 7.4 9.1 1.9 8.8-13.8 10.4 21.4 8.6 4.3 16.8-2.3 21.1 26.9-3.5 17.4 1.9 11 12.3 13.9-9.9 10.9-3.2 10 6.8 23.1-28.4 72-10.7 72-10.7z" class="st2"/><path id="path897" d="M171.1 122.2c0 12-17 33.1-37.9 33.1s-37.9-18.2-37.9-33.1 17-33.1 37.9-33.1c21 0 37.9 21.1 37.9 33.1" class="st0"/><g id="g977" transform="matrix(.9557 0 0 .9557 61.756 -88.36)"><circle id="circle899" cx="73.9" cy="220.3" r="20.3" class="st15"/><circle id="circle901" cx="73.9" cy="220.3" r="12.7" class="st16" transform="rotate(-6.714 73.88 220.26)"/><ellipse id="ellipse903" cx="82.6" cy="214.3" class="st18" rx="8.6" ry="7.2" style="filter:url(#filter1028)" transform="rotate(-53.7 82.62 214.29)"/><path id="path964" d="M58.2 218.6c.5 8.3 4.8 17.9 16.6 17.9" class="st20" style="filter:url(#filter992)"/></g><g id="g971" transform="matrix(.9557 0 0 .9557 63.873 -88.36)"><circle id="circle884" cx="176.9" cy="220.7" r="21.4" class="st15" transform="matrix(.04373 -.999 .999 .04373 -51.332 387.788)"/><circle id="circle886" cx="176.9" cy="220.7" r="12.7" class="st16" transform="rotate(-12.366 176.87 220.66)"/><ellipse id="circle888" cx="185.6" cy="214.7" class="st18" rx="8.6" ry="7.2" style="filter:url(#filter1012)" transform="rotate(-53.7 185.607 214.665)"/><path id="path966" d="M160.6 218.6c.5 8.3 4.8 17.9 16.6 17.9" class="st20" style="filter:url(#filter996)"/></g><path id="ellipse1032" d="M280.6 172.8c0 11.6-40.3 51.4-92.4 51.4S87 184.3 87 172.7c0-.7.2-1.3.5-1.9.3-.5.8-.9 1.5-1.3.6-.3 4.2 1.4 5.2 1.3.9-.2 2-.3 3.2-.3s2.6 0 4 .1c1.5.1 3.1 1.3 4.8 1.5s3.6-.6 5.5-.4c2 .3 3.7 2.6 5.9 2.9s4.7-1.4 7.1-1 4.3 3 6.9 3.4c2.5.4 5.7-1.6 8.4-1.2s5.5 2.8 8.3 3.1 5.8-1.4 8.7-1.1c3 .3 6.6 2.9 9.7 3.1s5.6-2 8.8-1.9 6.9 1.4 10.2 1.4 5.9-1.3 9.1-1.4 6.8.9 9.9.7 5.5-1.7 8.4-1.9c2.9-.3 6.3.6 9.1.3s5-1.9 7.6-2.2c2.6-.4 5.7.5 8.2.1s4.3-1.9 6.6-2.3 5 .5 7.1.2 3.6-1.8 5.5-2.1 4.2.7 5.9.5 2.7-1.5 4.1-1.6 2.7-.1 3.9-.1 2.2.1 3.1.3 3.9-1.5 4.5-1.2 1.1.8 1.4 1.3c.3.4.5 1 .5 1.8" style="fill:#370202"/><path id="path1035" d="M158.3 211.7c8.8 6.9 39.7 8.2 55.6 0" style="fill:none;stroke:#c83737;stroke-width:2.3262;stroke-linecap:round"/><path id="path1037" d="M95 123.1c1.3-17.7 18.2-32.7 37.2-34.3s38.8 20.9 38.9 33.4" class="st25"/><path id="path1039" d="M193.9 123.5c1.3-17.7 18.2-32.7 37.2-34.3s38.8 20.9 38.9 33.4" class="st25"/></g></g></g></svg>